<svg width="84" height="24" viewBox="0 0 84 24" fill="none" xmlns="http://www.w3.org/2000/svg">
<path d="M0.728 23.5515V0.319544H5.624V23.5515H0.728ZM20.3038 23.9355C18.5971 23.9355 17.0184 23.6369 15.5677 23.0395C14.1384 22.4422 12.8798 21.6102 11.7918 20.5435C10.7038 19.4769 9.86108 18.2395 9.26375 16.8315C8.66642 15.4022 8.36775 13.8662 8.36775 12.2235C8.36775 10.5595 8.66642 9.02354 9.26375 7.61554C9.86108 6.20754 10.6931 4.98088 11.7598 3.93554C12.8264 2.86888 14.0744 2.04754 15.5038 1.47154C16.9544 0.874209 18.5331 0.575542 20.2398 0.575542C21.9251 0.575542 23.4824 0.874209 24.9118 1.47154C26.3624 2.04754 27.6211 2.86888 28.6878 3.93554C29.7758 4.98088 30.6184 6.21821 31.2158 7.64754C31.8131 9.05554 32.1118 10.5915 32.1118 12.2555C32.1118 13.8982 31.8131 15.4342 31.2158 16.8635C30.6184 18.2715 29.7864 19.5089 28.7198 20.5755C27.6531 21.6209 26.3944 22.4422 24.9438 23.0395C23.5144 23.6369 21.9678 23.9355 20.3038 23.9355ZM20.2398 19.3595C21.5838 19.3595 22.7571 19.0609 23.7598 18.4635C24.7838 17.8662 25.5731 17.0342 26.1278 15.9675C26.6824 14.8795 26.9598 13.6315 26.9598 12.2235C26.9598 11.1569 26.7998 10.1969 26.4798 9.34354C26.1598 8.46888 25.7011 7.72221 25.1038 7.10354C24.5064 6.46354 23.7918 5.98354 22.9598 5.66354C22.1491 5.32221 21.2424 5.15154 20.2398 5.15154C18.8958 5.15154 17.7118 5.45021 16.6878 6.04754C15.6851 6.62354 14.9064 7.44488 14.3518 8.51154C13.7971 9.55688 13.5198 10.7942 13.5198 12.2235C13.5198 13.2902 13.6798 14.2609 13.9998 15.1355C14.3198 16.0102 14.7678 16.7675 15.3438 17.4075C15.9411 18.0262 16.6558 18.5062 17.4878 18.8475C18.3198 19.1889 19.2371 19.3595 20.2398 19.3595ZM46.2695 23.9035C44.6268 23.9035 43.0802 23.6049 41.6295 23.0075C40.2002 22.4102 38.9522 21.5889 37.8855 20.5435C36.8188 19.4769 35.9762 18.2395 35.3575 16.8315C34.7602 15.4022 34.4615 13.8662 34.4615 12.2235C34.4615 10.5809 34.7708 9.05554 35.3895 7.64754C36.0082 6.23954 36.8615 5.01288 37.9495 3.96754C39.0588 2.90088 40.3495 2.07954 41.8215 1.50354C43.2935 0.906211 44.8722 0.607544 46.5575 0.607544C48.4988 0.607544 50.2588 0.959544 51.8375 1.66354C53.4375 2.36754 54.7602 3.33821 55.8055 4.57554L52.3815 7.99954C51.6562 7.06088 50.8028 6.35688 49.8215 5.88754C48.8402 5.41821 47.7308 5.18354 46.4935 5.18354C45.1708 5.18354 43.9868 5.48221 42.9415 6.07954C41.8962 6.65554 41.0748 7.47688 40.4775 8.54354C39.9015 9.58888 39.6135 10.8155 39.6135 12.2235C39.6135 13.6315 39.9015 14.8689 40.4775 15.9355C41.0535 17.0022 41.8428 17.8342 42.8455 18.4315C43.8482 19.0289 45.0002 19.3275 46.3015 19.3275C47.6242 19.3275 48.7442 19.0822 49.6615 18.5915C50.6002 18.0795 51.3148 17.3542 51.8055 16.4155C52.3175 15.4555 52.5735 14.2929 52.5735 12.9275L55.9015 15.1675L45.8215 15.0075V10.7515H57.6935V11.4875C57.6935 14.1969 57.2028 16.4795 56.2215 18.3355C55.2615 20.1702 53.9175 21.5569 52.1895 22.4955C50.4828 23.4342 48.5095 23.9035 46.2695 23.9035ZM71.835 23.9355C70.1283 23.9355 68.5497 23.6369 67.099 23.0395C65.6697 22.4422 64.411 21.6102 63.323 20.5435C62.235 19.4769 61.3923 18.2395 60.795 16.8315C60.1977 15.4022 59.899 13.8662 59.899 12.2235C59.899 10.5595 60.1977 9.02354 60.795 7.61554C61.3923 6.20754 62.2243 4.98088 63.291 3.93554C64.3577 2.86888 65.6057 2.04754 67.035 1.47154C68.4857 0.874209 70.0643 0.575542 71.771 0.575542C73.4563 0.575542 75.0137 0.874209 76.443 1.47154C77.8937 2.04754 79.1523 2.86888 80.219 3.93554C81.307 4.98088 82.1497 6.21821 82.747 7.64754C83.3443 9.05554 83.643 10.5915 83.643 12.2555C83.643 13.8982 83.3443 15.4342 82.747 16.8635C82.1497 18.2715 81.3177 19.5089 80.251 20.5755C79.1843 21.6209 77.9257 22.4422 76.475 23.0395C75.0457 23.6369 73.499 23.9355 71.835 23.9355ZM71.771 19.3595C73.115 19.3595 74.2883 19.0609 75.291 18.4635C76.315 17.8662 77.1043 17.0342 77.659 15.9675C78.2137 14.8795 78.491 13.6315 78.491 12.2235C78.491 11.1569 78.331 10.1969 78.011 9.34354C77.691 8.46888 77.2323 7.72221 76.635 7.10354C76.0377 6.46354 75.323 5.98354 74.491 5.66354C73.6803 5.32221 72.7737 5.15154 71.771 5.15154C70.427 5.15154 69.243 5.45021 68.219 6.04754C67.2163 6.62354 66.4377 7.44488 65.883 8.51154C65.3283 9.55688 65.051 10.7942 65.051 12.2235C65.051 13.2902 65.211 14.2609 65.531 15.1355C65.851 16.0102 66.299 16.7675 66.875 17.4075C67.4723 18.0262 68.187 18.5062 69.019 18.8475C69.851 19.1889 70.7683 19.3595 71.771 19.3595Z" fill="black"/>
</svg>
